<svg xmlns="http://www.w3.org/2000/svg" width="215.697" height="257.23" viewBox="0 0 215.697 257.23"><defs><style>.a{fill:#fff;}.b{fill:#fcdc4a;}.c{fill:#211715;}</style></defs><path class="a" d="M127.432,84.242l-1.488-.048c-2.575-.084-6.262-.87-7.119-2.489-.7-1.327-.931-3.516-.836-6.454.462-14.205,1.139-26.9,1.723-40.984a13.048,13.048,0,0,1,3.11-7.911c.426-.5.9-1.081,1.481-1.874.694-.944,2.942-3.99,4.339-6.157l.094-.146.665.022,9.881.321.751.024.05.077c1.966,3.013,3.948,5.533,4.579,6.52.53.83.964,1.44,1.356,1.967a13.046,13.046,0,0,1,2.59,8.093c-.329,14.132-.479,26.807-.941,41.012-.11,3.393-.093,5.756-1.969,7.07-1.657,1.161-4.526,1.4-6.548,1.337Z"></path><path class="a" d="M129.4,18.2c-2.23,0-2.02-1.569-2.012-1.809.088-3.119.24-7.14.267-7.991a2.043,2.043,0,0,1,2.136-2.223l9.881.321a2,2,0,0,1,1.991,2.224c-.092,2.834-.211,6.737-.256,8.125-.012.353-.037,1.742-2.126,1.674L129.4,18.2"></path><path class="a" d="M47.2,44.224a11.047,11.047,0,0,0,1.35-.829,11.851,11.851,0,0,0,4.284-5.83,11.087,11.087,0,0,0-.634-8.9c-.491-.858-3.04-4.447-7.38-4.744a14.292,14.292,0,0,0-5.076.06,27.292,27.292,0,0,0-5.8,1.556A10.92,10.92,0,0,0,29.37,28.5a9.376,9.376,0,0,0-1.918,7.287,11.548,11.548,0,0,0,4.819,7.894c3.424,2.4,7.07,2.107,9.342,1.923A13.915,13.915,0,0,0,47.2,44.224Z"></path><path class="a" d="M108.6,34.471a22.245,22.245,0,0,1-13.972,13.9,29.729,29.729,0,0,1-17.517.567,7.44,7.44,0,0,1-2.76-1.191,2.953,2.953,0,0,1-1.221-2.62,3.211,3.211,0,0,1,2.253-2.352,18.8,18.8,0,0,1,3.369-.583,16.4,16.4,0,0,0,9.007-5.036A29.2,29.2,0,0,0,94.8,24.986c1.2-4.12,1.94-8.712,4.933-12a11.774,11.774,0,0,1,6.534-2.743l.674.206c3.99,1.356,4.1,8.5,3.944,12.245A39.042,39.042,0,0,1,108.6,34.471Z"></path><path class="a" d="M36.66,234.568a10.86,10.86,0,0,0-9.233,2.417,10.291,10.291,0,0,0-3.04,9.874,10.787,10.787,0,0,0,8.467,7.8c.541.109,6.047,1.133,9.742-2.772,3.518-3.716,3.3-9.688.545-13.4A10.626,10.626,0,0,0,36.66,234.568Z"></path><path class="a" d="M131.426,234.568a10.86,10.86,0,0,0-9.233,2.417,10.291,10.291,0,0,0-3.04,9.874,10.787,10.787,0,0,0,8.467,7.8c.542.109,6.047,1.133,9.743-2.772,3.517-3.716,3.3-9.688.544-13.4A10.624,10.624,0,0,0,131.426,234.568Z"></path><path class="a" d="M16.7,117.039c2.148,10.133,3.5,16.653,3.068,15.3l132.016.015c6.152-31.872,13-67.651,18.272-95.977-5.848.3-10.253.521-10.253.521-17.621.2-135.362,7.143-155.78,8.3a1.729,1.729,0,0,0-1.62,2.02C5.028,62.422,12.429,96.881,16.7,117.039Z"></path><path class="b" d="M139.952,193.254c-1.1,5.642-2,10.22-2.627,13.452a1.332,1.332,0,0,1-1.316,1.08c-25.219,0-86.388,0-116.234,0a5.994,5.994,0,0,0-5.995,5.973l-.016,3.971a5.992,5.992,0,0,0,5.994,6.021c28.067,0,84.777.013,123.252.01a8.309,8.309,0,0,0,8.162-6.722c6.836-34.993,28.106-144.156,36.149-189.734a7.07,7.07,0,0,1,6.964-5.837c8.641,0,8.7,0,13.012,0a6,6,0,0,0,6-6.037c-.006-1.063-.013-2.131-.019-3.183a6,6,0,0,0-6-5.964c-7.322,0-12.891,0-24.637-.008a8.463,8.463,0,0,0-8.339,6.954c-5.347,29.682-14.525,77.705-22.52,119.127l-132.123-.014a5.986,5.986,0,0,0-5.988,5.968l-.014,3.356a5.987,5.987,0,0,0,5.987,6.016c34.121,0,111.776.007,129.176.008C145.322,165.726,142.205,181.716,139.952,193.254Z" style="fill: rgb(195, 86, 86);"></path><path class="b" d="M90.285,12.084C89.217,10.069,86.729,8,84.951,9.428a4.3,4.3,0,0,0-1.073,1.608c-.02.043-.041.086-.061.13a30.192,30.192,0,0,0-5.693-4.772c-1.933-1.664-5.135-2.22-7.632-2.182a11.156,11.156,0,0,0-2.45.276,16.443,16.443,0,0,0-5.649,2.249,27.491,27.491,0,0,0-5.58,4.486,3.9,3.9,0,0,0-2.752-.785,5.741,5.741,0,0,0-2.6,1.364c-2.687,2.344-4.627,6.607-4.111,12.705a10.629,10.629,0,0,1,4.85,4.155,11.087,11.087,0,0,1,.634,8.9,11.86,11.86,0,0,1-.839,1.9,9.8,9.8,0,0,0,1.7,2.87c10.085-.575,20.83-1.182,31.493-1.775a23.392,23.392,0,0,0,5.1-28.48Z" style="fill: rgb(195, 86, 86);"></path><path class="c" d="M121.918,38.7a33.7,33.7,0,0,1,.455-6.267,11.4,11.4,0,0,1,2.389-4.668,86.644,86.644,0,0,0,5.948-8.224,2.4,2.4,0,0,0-4.145-2.422c-1.87,2.886-3.96,5.587-6.052,8.309a15.276,15.276,0,0,0-2.807,5.89,42.464,42.464,0,0,0-.588,7.382,2.4,2.4,0,0,0,4.8,0Z"></path><path class="c" d="M138.015,19.829c1.741,2.668,3.622,5.262,5.468,7.858a14.158,14.158,0,0,1,2.285,4.186,16.855,16.855,0,0,1,.39,5.4c-.084,3.09,4.716,3.088,4.8,0a22.2,22.2,0,0,0-.44-6.226,15.7,15.7,0,0,0-2.577-5.345c-1.981-2.709-3.947-5.48-5.781-8.29a2.453,2.453,0,0,0-3.284-.861,2.425,2.425,0,0,0-.861,3.283Z"></path><path class="c" d="M129.4,15.8c-.488-.012-.087.019.022.039.034.006-.335-.065-.333-.078.018-.12.471.275.179.069.547.386.3.271.2.154.432.493.271.387.182.234-.1-.169-.085-.328.125.31-.155-.471-.026.522.006.193.084-.855.048-1.741.075-2.6.062-1.906.159-3.813.2-5.72.008-.384.172-.179-.043.2a1.74,1.74,0,0,0,.1-.431c.022-.131.223-.488-.107.236a1.3,1.3,0,0,1,.125-.218c.014-.019-.358.407-.174.233s-.484.244-.111.079c-.551.244-.295.118-.15.067.376-.132-.014.019-.109.009.1.011.23,0,.338,0,.23.006.46.015.691.023l4.593.149,4.172.136a.954.954,0,0,0,.226.007.335.335,0,0,1,.063,0c-.659.05-.1-.113-.075-.01l.161.048-.287-.117c.345.168-.091-.083-.142-.13.278.256-.1-.154-.121-.189.278.391-.127.031-.021-.14a3,3,0,0,0,.117.428c-.021-.021-.033-.652-.049-.353,0,.052.01.107.008.159q-.019.7-.041,1.4-.1,3.26-.205,6.52c-.01.319-.157.99.043.058-.057.266-.213.448.115-.156a1.738,1.738,0,0,1-.1.174l.247-.318c-.125.121-.1.109.071-.033.355-.25-.2-.039.2-.11s.013,0-.071,0c-.322.028.456.024.085-.012-.11-.011-.237,0-.347,0-.178,0-.356-.011-.533-.017l-9.328-.3a2.42,2.42,0,0,0-2.4,2.4,2.45,2.45,0,0,0,2.4,2.4l9.41.306a5.4,5.4,0,0,0,3.159-.638A4.066,4.066,0,0,0,143.8,17c.168-2.176.139-4.385.208-6.566a10.114,10.114,0,0,0-.155-3.239A4.246,4.246,0,0,0,140.7,4.224a28.6,28.6,0,0,0-4.854-.249L130.523,3.8a5.737,5.737,0,0,0-2.967.488,4.369,4.369,0,0,0-2.162,2.985,17.619,17.619,0,0,0-.2,2.913q-.079,2.256-.153,4.512a9.839,9.839,0,0,0,.124,3.149A4.229,4.229,0,0,0,129.4,20.6a2.421,2.421,0,0,0,2.4-2.4,2.446,2.446,0,0,0-2.4-2.4Z"></path><path class="c" d="M55.385,40.641c-.111-.13-.218-.263-.323-.4l.375.486a9.694,9.694,0,0,1-1.246-2.115l.242.573c-.046-.108-.089-.217-.131-.327a2.69,2.69,0,0,0-1.1-1.434,1.774,1.774,0,0,0-.892-.285,1.812,1.812,0,0,0-.957.043,2.427,2.427,0,0,0-1.435,1.1l-.242.573a2.423,2.423,0,0,0,0,1.276,12.745,12.745,0,0,0,.987,2.1,14.286,14.286,0,0,0,1.331,1.8,2.318,2.318,0,0,0,2.621.5,1.8,1.8,0,0,0,.773-.5,2.417,2.417,0,0,0,.7-1.7L56,41.7a2.4,2.4,0,0,0-.617-1.059Z"></path><path class="c" d="M54.489,37.94c2.933-1.642,6.073-2.49,8.392-5.077a24.708,24.708,0,0,0,2.48-3.409c.509-.812,1.293-2.7,2.1-3.054l-1.211.328a18.2,18.2,0,0,1,2.7.244,12.617,12.617,0,0,0,3.156-.357,14.858,14.858,0,0,0,5.378-2.547c3.463-2.569,5.753-6.238,7.626-10.059a12.352,12.352,0,0,1,1.3-2.63c.354-.4-.009-.02-.023-.023-.067-.011.487.3.58.37,1.275.993,1.913,2.784,2.418,4.256A21.645,21.645,0,0,1,90.1,27.7a21.416,21.416,0,0,1-6.611,11.162c-2.286,2.088,1.116,5.475,3.394,3.394a25.967,25.967,0,0,0,8.3-15.976,26.476,26.476,0,0,0-.439-8.958,18.988,18.988,0,0,0-3.674-8.259c-1.923-2.236-5.359-3.543-7.818-1.331a11.174,11.174,0,0,0-2.191,3.661,44.286,44.286,0,0,1-2.281,4.19,14.836,14.836,0,0,1-5.927,5.7,8.505,8.505,0,0,1-3.513.887c-1.586.027-3.111-.7-4.6.216-1.312.8-2.106,2.367-2.9,3.641A29.369,29.369,0,0,1,59.808,29.1c-2.024,2.495-5.038,3.185-7.742,4.7s-.278,5.657,2.423,4.144Z"></path><path class="c" d="M49.748,24.508a18.044,18.044,0,0,1,.209-5.152,11.256,11.256,0,0,1,1.326-3.588c.147-.254.309-.5.47-.742.068-.1.139-.2.212-.3q-.2.248.069-.081a8.4,8.4,0,0,1,1.158-1.189,3.839,3.839,0,0,1,.872-.527,3.691,3.691,0,0,1,.472-.137q.432-.1-.229.011c.249.043.664.153-.008-.059a2.592,2.592,0,0,0,.515.13c.326.024-.457-.261.093.039.187.1.375.2.559.3.358.21.7.441,1.047.673.888.6,1.758,1.222,2.668,1.787a22.59,22.59,0,0,0,8.609,3.235,2.478,2.478,0,0,0,2.952-1.676,2.417,2.417,0,0,0-1.676-2.952,18.278,18.278,0,0,1-6.947-2.438c-1.542-.914-2.938-2.078-4.513-2.934a6.038,6.038,0,0,0-6.137-.037,12.093,12.093,0,0,0-4.931,5.636,20.186,20.186,0,0,0-1.59,10,2.461,2.461,0,0,0,2.4,2.4,2.42,2.42,0,0,0,2.4-2.4Z"></path><path class="c" d="M63.605,8.809a18.065,18.065,0,0,1,1.832-1.015c.341-.164-.523.19.09-.042.131-.049.26-.1.391-.147.344-.125.692-.236,1.043-.34.677-.2,1.365-.4,2.058-.538a1.294,1.294,0,0,1,.37-.065c-.089-.028-.515.054-.155.024.3-.025.59-.052.887-.064a16,16,0,0,1,1.779.03c.174.013.347.028.52.046.217.023.444.065.1.008.318.052.635.107.949.176a11.336,11.336,0,0,1,1.934.591c-.315-.132-.088-.036.089.059.15.081.3.157.449.244.115.068.225.147.342.213.539.306-.324-.289.146.1a2.468,2.468,0,0,0,3.394,0,2.419,2.419,0,0,0,0-3.394C74.664.407,66.558,1.268,61.182,4.665a2.4,2.4,0,1,0,2.423,4.144Z"></path><path class="c" d="M33.339,41.506c-.133-.1.374.333-.059-.053-.2-.175-.4-.341-.587-.522a12.035,12.035,0,0,1-1.168-1.266A8.6,8.6,0,0,1,29.819,35.5a6.827,6.827,0,0,1,4.4-7.522c3.583-1.486,8.3-2.689,12.088-1.317a7.926,7.926,0,0,1,3.232,2.382c.1.107.186.22.275.331-.011-.014-.235-.319-.09-.112.109.157.221.311.321.474a7.2,7.2,0,0,1,.985,2.8,9.53,9.53,0,0,1-3.161,8.338c-2.256,2.12,1.144,5.51,3.394,3.394,6.3-5.922,6.306-17.173-1.878-21.464-4.8-2.517-10.778-1.482-15.654.258a13.547,13.547,0,0,0-6.946,4.865A11.388,11.388,0,0,0,24.963,34.6,14.132,14.132,0,0,0,30.916,45.65a2.415,2.415,0,0,0,3.284-.861,2.457,2.457,0,0,0-.861-3.283Z"></path><path class="c" d="M37.044,33.707c.633.321,1.23.706,1.859,1.032a2.486,2.486,0,0,0,1.849.242,2.582,2.582,0,0,0,1.434-1.1c.408-.641.853-1.263,1.288-1.886a1.794,1.794,0,0,0,.285-.892,1.823,1.823,0,0,0-.043-.957,2.7,2.7,0,0,0-1.1-1.435,2.427,2.427,0,0,0-1.849-.242l-.574.242a2.432,2.432,0,0,0-.861.861c-.435.624-.879,1.245-1.287,1.887l3.283-.861c-.628-.327-1.225-.712-1.858-1.032a1.774,1.774,0,0,0-.892-.285,2.158,2.158,0,0,0-1.773.472,1.809,1.809,0,0,0-.619.674,2.422,2.422,0,0,0-.241,1.849,2.392,2.392,0,0,0,1.1,1.434Z"></path><path class="c" d="M108.3,40.619c3.122-4.867,4.558-11.06,4.919-16.781.257-4.072.335-8.9-1.82-12.524a7.107,7.107,0,0,0-4.458-3.369c-2.281-.53-5.158.817-7.067,1.959-4.68,2.8-5.839,8.837-7.178,13.692-1.646,5.965-5.2,11.947-10.75,15.01-2.7,1.492-.286,5.639,2.423,4.144a26.939,26.939,0,0,0,10.612-11.7,38.75,38.75,0,0,0,2.651-7.324,31.142,31.142,0,0,1,2.35-6.931,6.568,6.568,0,0,1,3.824-3.528,10.03,10.03,0,0,1,1.3-.439,5.333,5.333,0,0,0,.633-.151c-.167.072.575-.044.11-.06-.343-.012.3.091.455.154-.3-.125.062.04.1.062.429.233-.045-.093.294.2a4.2,4.2,0,0,1,.9,1.341,12.109,12.109,0,0,1,.717,2.824,29.965,29.965,0,0,1,.185,5.03c-.174,5.438-1.37,11.334-4.34,15.964-1.672,2.607,2.481,5.017,4.145,2.422Z"></path><path class="c" d="M105.837,2.956c-.473,1.956-.918,3.92-1.392,5.876a2.522,2.522,0,0,0,.242,1.85,2.4,2.4,0,0,0,4.387-.574c.473-1.956.919-3.92,1.392-5.876a2.521,2.521,0,0,0-.242-1.85,2.4,2.4,0,0,0-4.387.574Z"></path><path class="c" d="M101.545,4.686a47.078,47.078,0,0,0,11.641,1,2.437,2.437,0,0,0,2.4-2.4,2.434,2.434,0,0,0-2.4-2.4,44.22,44.22,0,0,1-5.424-.1q-.69-.055-1.378-.133-.317-.036-.634-.077c.435.054-.034-.005-.2-.03-.913-.135-1.821-.3-2.723-.491a2.445,2.445,0,0,0-2.953,1.676,2.435,2.435,0,0,0,1.676,2.952Z"></path><path class="c" d="M37.3,232.254a13.07,13.07,0,0,0-13.257,4.989A12.536,12.536,0,0,0,25.7,253.6a14.145,14.145,0,0,0,11.825,3.452,12.033,12.033,0,0,0,10.1-12,12.9,12.9,0,0,0-10.325-12.8,2.461,2.461,0,0,0-2.953,1.676,2.423,2.423,0,0,0,1.677,2.952,12.4,12.4,0,0,1,1.863.527c.68.252-.412-.212.284.12.229.11.454.224.675.347a10.332,10.332,0,0,1,1.111.728,7.894,7.894,0,0,1,2.772,5,8.23,8.23,0,0,1-.84,5.212,6.888,6.888,0,0,1-4.22,3.305c-.238.067-.479.125-.721.175-.036.008-.814.141-.291.068a10.525,10.525,0,0,1-1.08.086c-.145,0-1.978-.14-2.008-.081.05-.1.671.123.221.027-.069-.014-.14-.023-.21-.036-.267-.05-.531-.114-.793-.185a8.108,8.108,0,0,1-5.6-10.84,7.713,7.713,0,0,1,5.062-4.3,7.169,7.169,0,0,1,2.581-.265c.337.01.671.051,1.008.071.5.03-.552-.158-.144-.018a2.509,2.509,0,0,0,.327.057,2.463,2.463,0,0,0,2.952-1.676A2.422,2.422,0,0,0,37.3,232.254Z"></path><path class="c" d="M132.064,232.254a13.07,13.07,0,0,0-13.257,4.989,12.536,12.536,0,0,0,1.655,16.358,14.145,14.145,0,0,0,11.825,3.452,12.033,12.033,0,0,0,10.1-12,12.9,12.9,0,0,0-10.325-12.8,2.46,2.46,0,0,0-2.952,1.676,2.422,2.422,0,0,0,1.676,2.952,12.4,12.4,0,0,1,1.863.527c.681.252-.412-.212.285.12.228.11.453.224.674.347a10.332,10.332,0,0,1,1.111.728,7.9,7.9,0,0,1,2.773,5,8.231,8.231,0,0,1-.841,5.212,6.888,6.888,0,0,1-4.22,3.305c-.238.067-.479.125-.721.175-.036.008-.814.141-.291.068a10.525,10.525,0,0,1-1.08.086c-.145,0-1.977-.14-2.008-.081.05-.1.672.123.221.027-.069-.014-.14-.023-.21-.036-.266-.05-.531-.114-.793-.185a8.108,8.108,0,0,1-5.6-10.84,7.713,7.713,0,0,1,5.062-4.3,7.169,7.169,0,0,1,2.581-.265c.338.01.672.051,1.008.071.5.03-.552-.158-.144-.018a2.539,2.539,0,0,0,.327.057,2.463,2.463,0,0,0,2.952-1.676A2.421,2.421,0,0,0,132.064,232.254Z"></path><path class="c" d="M21.843,129.968c-2.275-11.585-4.861-23.112-7.3-34.663-3.09-14.618-6.216-29.237-8.952-43.927q-.36-1.927-.7-3.86a2.793,2.793,0,0,0-.083-.475c-.089-.239.068-.238-.021-.166.018-.015-.479.735-.461.684-.058.17-.3-.059.008.017A5.153,5.153,0,0,0,5.636,47.5l7.114-.41q10.653-.617,21.307-1.231,29.181-1.682,58.365-3.3c20.88-1.154,41.768-2.426,62.669-3.141,1.572-.054,3.145-.1,4.718-.12,3.087-.034,3.095-4.834,0-4.8-9.493.1-19,.717-28.475,1.191q-16.454.823-32.9,1.739-29.964,1.642-59.921,3.38-11.593.666-23.186,1.338L7.4,42.6l-2.873.165c-2.513.144-4.68,1.7-4.513,4.449a36.915,36.915,0,0,0,.748,4.339q.414,2.253.847,4.5.979,5.1,2.01,10.185,2.4,11.888,4.909,23.75c2.731,12.988,5.567,25.955,8.23,38.957q.234,1.146.462,2.295a2.424,2.424,0,0,0,2.952,1.676,2.448,2.448,0,0,0,1.676-2.952Z"></path><path class="c" d="M124.5,119.9c2.558-18.15,5.375-36.263,8.333-54.352q1.1-6.745,2.23-13.487a2.472,2.472,0,0,0-1.676-2.952,2.42,2.42,0,0,0-2.953,1.676c-2.865,17.168-5.636,34.353-8.2,51.569q-1.212,8.13-2.361,16.27a2.482,2.482,0,0,0,1.677,2.952A2.417,2.417,0,0,0,124.5,119.9Z"></path><path class="c" d="M37.179,57.192C39.841,73.04,42.42,88.9,44.8,104.794q1.131,7.539,2.2,15.089a2.416,2.416,0,0,0,2.953,1.676,2.464,2.464,0,0,0,1.676-2.952C49.251,101.786,46.621,85,43.859,68.241q-1.015-6.163-2.052-12.325a2.419,2.419,0,0,0-2.952-1.676,2.455,2.455,0,0,0-1.676,2.952Z"></path><path class="c" d="M98.384,119.245c1.2-17.387,2.551-34.764,3.8-52.147q.5-7,.984-13.995a2.4,2.4,0,0,0-4.8,0c-1.284,18.941-2.724,37.872-4.109,56.806-.228,3.112-.459,6.223-.674,9.336a2.422,2.422,0,0,0,2.4,2.4,2.447,2.447,0,0,0,2.4-2.4Z"></path><path class="c" d="M66.818,54.857c1.228,18.378,2.62,36.747,3.967,55.117q.339,4.635.677,9.271a2.457,2.457,0,0,0,2.4,2.4,2.421,2.421,0,0,0,2.4-2.4c-1.229-17.087-2.512-34.17-3.729-51.258q-.468-6.564-.915-13.13a2.456,2.456,0,0,0-2.4-2.4,2.421,2.421,0,0,0-2.4,2.4Z"></path><path class="c" d="M33.477,100.419,113.539,98.1l22.625-.655c3.082-.089,3.095-4.889,0-4.8L57.227,94.932l-23.75.687c-3.082.089-3.095,4.89,0,4.8Z"></path><path class="c" d="M24.553,77.788q23.718-1,47.431-2.143,22.529-1.065,45.057-2.127,13.077-.6,26.156-1.156c3.077-.13,3.094-4.93,0-4.8q-22.827.965-45.646,2.068Q74.777,70.709,52,71.778q-13.724.628-27.448,1.21c-3.078.13-3.094,4.931,0,4.8Z"></path><path class="c" d="M137.638,192.616q-1.028,5.263-2.056,10.527l-.374,1.914c-.035.182-.237.705-.17.871.22.547.821-.839.971-.542a2.378,2.378,0,0,0-.414,0,23.066,23.066,0,0,0-2.844,0H25.449a43.192,43.192,0,0,0-7.151.146,8.448,8.448,0,0,0-6.6,5.947,19.819,19.819,0,0,0-.332,5.375,10.037,10.037,0,0,0,.958,4.795,8.55,8.55,0,0,0,7.68,4.5c2.264.019,4.529,0,6.793,0l34.382,0,40.277,0q19.322,0,38.642,0c3.128,0,6.192.045,8.882-1.823a11.141,11.141,0,0,0,4.612-7.217q.921-4.707,1.838-9.415,2.445-12.531,4.88-25.065,2.988-15.381,5.961-30.765,3.267-16.917,6.512-33.838t6.447-33.828q2.921-15.432,5.789-30.875,2.313-12.483,4.542-24.981c.43-2.389,1.928-4.39,4.545-4.482,2.7-.094,5.414,0,8.115,0,1.57,0,3.141,0,4.712,0a8.607,8.607,0,0,0,7.731-4.368,9.641,9.641,0,0,0,1.027-4.753,15.108,15.108,0,0,0-.521-5.306,8.533,8.533,0,0,0-7.54-5.547c-2.525-.15-5.1-.011-7.631-.012l-8.351,0-5.04,0a37.34,37.34,0,0,0-5.813.17,10.885,10.885,0,0,0-7.488,5.111c-1.458,2.419-1.67,5.392-2.165,8.116q-.78,4.282-1.568,8.563-3.684,20.012-7.489,40-4.218,22.265-8.5,44.516-2.053,10.683-4.115,21.365l2.314-1.762-54.875-.006-64.768-.007c-4.252,0-8.573-.224-12.82.008a8.473,8.473,0,0,0-7.145,4.6,9.5,9.5,0,0,0-.9,4.231,18.5,18.5,0,0,0,.3,5.17,8.455,8.455,0,0,0,6.109,5.893,27.971,27.971,0,0,0,6.112.234H36.327l61.108,0,48.384,0h3l-2.314-3.038q-4.423,22.787-8.871,45.567a2.463,2.463,0,0,0,1.676,2.952,2.423,2.423,0,0,0,2.953-1.676q4.446-22.78,8.871-45.567a2.435,2.435,0,0,0-2.315-3.038l-42.4,0-60.434,0h-25c-1.941,0-3.862-.18-4.693-2.266-.482-1.208-.228-2.722-.223-3.992a4.39,4.39,0,0,1,.738-2.891c1.326-1.719,3.456-1.391,5.372-1.391H28.4l62.108.006,56.546.006h4.736a2.427,2.427,0,0,0,2.314-1.762q8.282-42.906,16.381-85.847,1.728-9.224,3.433-18.451.786-4.262,1.564-8.524.35-1.921.7-3.842a20.031,20.031,0,0,1,.811-3.856,6.172,6.172,0,0,1,5.658-3.8c3.481-.08,6.974,0,10.456,0l7.939,0h3.526a12.8,12.8,0,0,1,3.774.159c2.889.929,2.668,4.1,2.558,6.589-.1,2.352-1.833,3.626-4.08,3.638-4.014.02-8.029-.019-12.043,0a9.828,9.828,0,0,0-8.349,4.193c-1.343,1.957-1.574,4.3-1.979,6.571q-1.054,5.912-2.137,11.819-5.52,30.2-11.329,60.346-6.222,32.616-12.55,65.213-4.674,24.118-9.385,48.231c-.436,2.232-1.192,4.166-3.333,5.272-2.282,1.178-5.395.648-7.881.648q-9.243,0-18.486,0l-39.286,0-37.446,0-15.673,0c-2.228,0-4.457.007-6.685,0-2.057-.006-3.853-1.09-4.082-3.28a22.281,22.281,0,0,1,.009-4.676,3.7,3.7,0,0,1,1.693-2.668,4.988,4.988,0,0,1,2.884-.541h87.427c9.128,0,18.283.2,27.409,0a3.913,3.913,0,0,0,3.949-2.543,29.6,29.6,0,0,0,.767-3.736l1.956-10.015a2.462,2.462,0,0,0-1.677-2.952A2.422,2.422,0,0,0,137.638,192.616Z"></path><path class="c" d="M14.682,31.483a8.7,8.7,0,0,1,1.509-4.924,4.514,4.514,0,0,1,3.522-1.746,2.47,2.47,0,0,0,2.314-1.762A8.441,8.441,0,0,1,33.2,17.317a2.423,2.423,0,0,0,2.953-1.676,2.452,2.452,0,0,0-1.677-2.953A13.283,13.283,0,0,0,17.4,21.775l2.314-1.762A9.66,9.66,0,0,0,12.7,23.282a13.611,13.611,0,0,0-2.822,8.2,2.4,2.4,0,1,0,4.8,0Z"></path></svg>