<svg xmlns="http://www.w3.org/2000/svg" width="364.449" height="316.952" viewBox="0 0 364.449 316.952"><defs><style>.a{fill:#fff;}.b{fill:#fcdc4a;}.c{fill:#211715;}</style></defs><path class="a" d="M352.781,268.443a17.989,17.989,0,0,0,7.96-10.056,52.86,52.86,0,0,0,1.042-16.618c-4.223-28.222-7.112-45.778-14.223-71.555a77.311,77.311,0,0,0-11.777-23.778,47.259,47.259,0,0,0-9.03-8.816,68.912,68.912,0,0,0-15.35-8.609,2,2,0,0,0-1.589.014c-16.618,7.336-34.107,12.293-54.206,10.416-6.719-.627-15.7-3.5-20.792-9.341a1.987,1.987,0,0,0-2.218-.544c-3.712,1.44-7.26,2.934-10.894,4.549a38.6,38.6,0,0,0-8.71,5.54,27.874,27.874,0,0,0-8.34,12.58A165.839,165.839,0,0,0,197.9,177.9c-1.97,10.81-3.7,20.24-6.34,30.87l-.6,3.147c5.984.2,10.854.369,14.077.472a4.988,4.988,0,0,1,4.759,4.121q2.421,13.756,4.866,27.917c6-9.1,9.836-18.253,14.31-27.017,1.8,3.652,3.885,7.176,5.589,10.875a48.272,48.272,0,0,1,2.554,7.11c.131.461.285.911.457,1.357,1.115,2.888.958,7.805,3.161,13.016a105.152,105.152,0,0,1,9.473-5.458c4.07-2.07,8.63-3.91,13.08-2.95,5.68,1.23,8.434,3.739,14.074,5.119,4.122,1.015,6.362,0,9.926-.019,5,9.624,7.158,25.618,7.255,28.343,5.037-.074,28.5-.445,36.1-1.218,5.991-.61,12.136-.744,17.751-2.921A24.894,24.894,0,0,0,352.781,268.443Z"></path><path class="a" d="M144.646,311.132c-18-.9-34.192-1.826-42.956-2.573a5,5,0,0,1-4.5-4.131c-6.14-35.246-10.985-63.256-15.567-90.069a4.989,4.989,0,0,1,5.036-5.834c25.369.608,99.66,3.268,118.376,3.866a4.988,4.988,0,0,1,4.759,4.121q2.421,13.763,4.868,27.929c6-9.109,9.833-18.262,14.309-27.029,1.8,3.652,3.885,7.176,5.588,10.875a48.272,48.272,0,0,1,2.554,7.11c.131.461.285.911.457,1.357,1.115,2.888.958,7.805,3.161,13.016q-2.495,1.608-4.9,3.362c-1.14.83-5.52,4.18-6.53,5.18a11.906,11.906,0,0,0-2.23,2.72c-.37.75-.9,2.84-.06,4.08a4.339,4.339,0,0,0,4.54,1.69l1.153-.243-.886,1.125a4.83,4.83,0,0,0-1.229,3.1,3.3,3.3,0,0,0,4.081,3.621,18.228,18.228,0,0,0,4.857-1.824,5.925,5.925,0,0,0-1.061,2.8,3.825,3.825,0,0,0,3.219,3.985c2.081.365,3.569-.617,5.355-1.747,5.492-3.477,10.793-7.485,16.3-10.909-3.324,4.246-4.6,7.663-7.606,12.269-.624.956-.92,3.411.345,4.484,1.924,1.632,4.285-.1,5-.675a85.353,85.353,0,0,0,10.649-9.97,15.175,15.175,0,0,0,11.675.05c1.6-.665,3.122-1.4,4.468-2.1,0,3.3,0,6.836,0,8.377-16.531,10.773-48.984,29.346-57.237,34.288a7.939,7.939,0,0,1-4.294,1.129C214.247,314.249,176.586,312.73,144.646,311.132Z"></path><path class="a" d="M240.44,127.748c2.112-.827,4.4-1.735,7.191-2.971a6.951,6.951,0,0,0,1.669-1.069,40.5,40.5,0,0,0,22.534-.451,43.891,43.891,0,0,0,16.967-10.27,53.425,53.425,0,0,0,4.171-4.225,63.855,63.855,0,0,0,4.122,10.484c.962,1.946,8.5,7.739,12.407,9.92-16.525,7.257-33.921,12.141-53.893,10.275-6.719-.627-15.7-3.5-20.792-9.341l-.056-.061.077-.03C236.726,129.2,238.51,128.505,240.44,127.748Z"></path><path class="a" d="M234.868,54.838c2.864-2.574,5.693-5.181,8.427-7.733-.213,3.111-.544,6.105-1.051,9.23a1.064,1.064,0,0,0,1.378,1.19c11.672-3.971,22.413-10.787,29.388-19.4a129.971,129.971,0,0,0,5.926,13.794c2.8,5.519,9.85,15.067,16.042,16.708,1.622.611,3.735,1.215,5.358,1.826,2.727-2.665,7.418-2.672,10.53-.466a11.745,11.745,0,0,1,4.517,10A19.4,19.4,0,0,1,311.321,90.5a27.987,27.987,0,0,1-11.743,9A54.327,54.327,0,0,1,288.8,112.987a43.891,43.891,0,0,1-16.967,10.27,40.5,40.5,0,0,1-22.534.451,39.984,39.984,0,0,1-11.273-4.891,38.665,38.665,0,0,1-10.242-10.047,52.483,52.483,0,0,1-7.835-15.531,72.7,72.7,0,0,1-3.236-15.562c-.347-3-.486-5.541-.543-7.376,1.088-.8,2.472-1.9,3.719-2.776C224.772,63.712,229.873,59.326,234.868,54.838Z"></path><path class="a" d="M230.6,271.123c-.006-.116-.006-.231,0-.342a4.83,4.83,0,0,1,1.229-3.1l.886-1.125-1.153.243a4.339,4.339,0,0,1-4.54-1.69c-.84-1.24-.31-3.33.06-4.08a11.906,11.906,0,0,1,2.23-2.72c1.01-1,5.39-4.35,6.53-5.18a105.827,105.827,0,0,1,14.37-8.82c4.07-2.07,8.63-3.91,13.08-2.95,5.68,1.23,8.434,3.739,14.074,5.119,3.972.978,6.195.076,9.54-.012,3.278,6.316,5.336,15.376,6.39,21.627l-.693.206c-1.426.6-5.034,2.836-9.188,4.559a15.17,15.17,0,0,1-11.675-.051,85.285,85.285,0,0,1-10.649,9.971c-.712.571-3.073,2.307-5,.675-1.265-1.073-.969-3.528-.345-4.484,3-4.607,4.282-8.023,7.606-12.269-5.511,3.424-10.812,7.432-16.3,10.909-1.786,1.13-3.274,2.112-5.355,1.747a3.825,3.825,0,0,1-3.219-3.985,5.929,5.929,0,0,1,1.066-2.8l-1.652.768a10.991,10.991,0,0,1-3.21,1.063,3.975,3.975,0,0,1-3.219-.948A3.893,3.893,0,0,1,230.6,271.123Z"></path><path class="a" d="M45.732,27.106C19.287,36.317,2.368,61.182,2.368,89.272c0,41.175,25.672,67.2,66.37,67.2,13,0,24.346-2.538,33.809-7.27,6.736,2.757,11.821,4.713,20.54,7.89-2.194-8.29-3.253-12.507-5.171-19.175,11.153-11.639,17.191-28.286,17.191-48.645,0-35.8-27.274-65.959-66.379-65.959A69.686,69.686,0,0,0,45.732,27.106Z"></path><path class="b" d="M209.049,125.736a19.693,19.693,0,0,0,5.968,12.341A34.853,34.853,0,0,1,221.7,134.1c3.634-1.615,7.182-3.108,10.894-4.548a1.987,1.987,0,0,1,2.218.544c0-.027-.037-.041-.056-.061l.077-.03c1.889-.814,3.673-1.5,5.6-2.261,2.112-.827,4.4-1.735,7.191-2.971a6.951,6.951,0,0,0,1.669-1.069,39.984,39.984,0,0,1-11.273-4.891,38.679,38.679,0,0,1-10.242-10.046,52.5,52.5,0,0,1-7.835-15.532,72.7,72.7,0,0,1-3.236-15.562c-.347-3-.486-5.541-.543-7.376,1.088-.8,2.472-1.9,3.719-2.776,4.882-3.813,9.983-8.2,14.978-12.687,2.864-2.574,5.693-5.181,8.427-7.733-.213,3.111-.544,6.105-1.051,9.23a1.064,1.064,0,0,0,1.378,1.19c11.672-3.971,22.413-10.787,29.388-19.4a129.971,129.971,0,0,0,5.926,13.794c2.8,5.519,9.85,15.067,16.042,16.708,1.622.611,3.735,1.215,5.358,1.826,2.728-2.665,7.418-2.672,10.53-.466a11.745,11.745,0,0,1,4.517,10A19.4,19.4,0,0,1,311.321,90.5a27.987,27.987,0,0,1-11.743,9,54.721,54.721,0,0,1-6.613,9.263l.008,0a63.761,63.761,0,0,0,4.121,10.484c.961,1.945,8.493,7.734,12.4,9.916.105-.046.212-.09.318-.137a2,2,0,0,1,1.589-.014,81.524,81.524,0,0,1,11.044,5.628c2.809-3.284,2.9-6.871,2.957-9.328A40.456,40.456,0,0,0,323.34,111.4c-1.856-6.152-5.258-18.643-4.824-40.728l0,0c.788-6.374.494-15.633.351-19.193-.5-12.34-5.717-26.284-13.628-34.211-.075-.075-.162-.155-.251-.233A64.833,64.833,0,0,0,298.528,12c-.151-.111-.3-.215-.466-.322A46.469,46.469,0,0,0,288.016,6.6a60.851,60.851,0,0,0-22.811-4.177,53.676,53.676,0,0,0-35.311,12.67c-13.04,11.506-20.862,27.516-18.853,53.662C213.852,88.385,207.584,109.55,209.049,125.736Z" style="fill: rgb(195, 86, 86);"></path><path class="b" d="M90.272,71.689c-14.453,0-39.189.048-50.235.035,2.325,8.2,5.9,20.86,8.514,29.97,11.086-.031,38.486-.107,44.8-.122a2.012,2.012,0,0,0,1.958-1.56c1.167-5.023,4.528-19.632,5.933-25.848A2.016,2.016,0,0,0,99.283,71.7C97.354,71.693,94.191,71.689,90.272,71.689Z" style="fill: rgb(195, 86, 86);"></path><path class="c" d="M216.705,136.383a18.171,18.171,0,0,1-4.855-8.37,34.836,34.836,0,0,1-.616-8.908c.118-7.327,1.1-14.615,1.853-21.9a137.377,137.377,0,0,0,.9-23.114c-.252-3.812-.773-7.566-.846-11.394a84.874,84.874,0,0,1,.4-10.271c1.095-10.75,4.985-21.215,11.961-29.45a50.416,50.416,0,0,1,26.992-16.7,58.449,58.449,0,0,1,40.11,4.953,45.689,45.689,0,0,1,4.715,2.84,2.421,2.421,0,0,0,3.284-.861,2.449,2.449,0,0,0-.861-3.283A56.034,56.034,0,0,0,280.22,1.67,64.939,64.939,0,0,0,257.306.536,55.414,55.414,0,0,0,224.88,16.543a57.012,57.012,0,0,0-15.3,29.859,86.766,86.766,0,0,0-1.008,21.461c.279,4.043.8,8.009.8,12.077s-.245,8.11-.594,12.151c-.665,7.68-1.76,15.326-2.194,23.025-.382,6.78-.547,13.98,3.062,20a24.991,24.991,0,0,0,3.665,4.662c2.171,2.2,5.565-1.191,3.394-3.394Z"></path><path class="c" d="M303.291,18.727c5.841,5.608,9.384,13.6,11.41,21.316,2.2,8.392,2.238,17.321,1.8,25.938-.12,2.377-.4,4.723-.421,7.1q-.027,3.711.095,7.422c.139,4.1.429,8.2.912,12.272a111.809,111.809,0,0,0,3.17,16.628c.968,3.5,2.159,6.951,2.547,10.583.449,4.2.807,9.48-2.057,12.953a2.468,2.468,0,0,0,0,3.394,2.418,2.418,0,0,0,3.394,0c3.007-3.646,3.7-7.82,3.678-12.419a48.505,48.505,0,0,0-2.318-13.647,105.888,105.888,0,0,1-3.279-14.947c-.542-3.725-.88-7.535-1.091-11.314a102.094,102.094,0,0,1-.042-14.973,122.826,122.826,0,0,0,.269-14.874A70.021,70.021,0,0,0,319.98,41.5c-2.018-9.437-6.227-19.385-13.3-26.17-2.229-2.14-5.628,1.25-3.394,3.394Z"></path><path class="c" d="M286.5,277.177c-14.451,9.393-29.421,18-44.3,26.693q-4.318,2.521-8.636,5.046c-2.334,1.368-4.708,3.289-7.51,3.234-4.558-.091-9.116-.286-13.671-.455q-21.993-.813-43.977-1.832c-15.586-.708-31.171-1.456-46.747-2.361-5.747-.333-11.494-.681-17.234-1.123a13.989,13.989,0,0,1-3.081-.32c-2.242-.718-2.1-3.792-2.43-5.689q-1.592-9.134-3.178-18.268-5.547-31.933-11.024-63.879-.288-1.689-.577-3.379a3.631,3.631,0,0,1,.158-2.6c.79-1.4,2.192-1.32,3.6-1.285q4.021.1,8.044.219,10.527.3,21.053.648,24.78.8,49.558,1.66,18.648.639,37.295,1.27c1.3.042,2.575.069,3.3,1.355a10.763,10.763,0,0,1,.748,3.356q.408,2.323.814,4.646,1.623,9.28,3.23,18.566,3.276,18.877,6.586,37.749,1.643,9.291,3.321,18.574a2.421,2.421,0,0,0,2.952,1.676,2.452,2.452,0,0,0,1.676-2.952c-4.655-25.713-9.034-51.476-13.543-77.215-.49-2.794-.6-5.926-2.6-8.127a7.98,7.98,0,0,0-5.934-2.41q-3.294-.107-6.587-.218-9.609-.324-19.218-.657-25.176-.864-50.353-1.707c-13.792-.455-27.6-1.082-41.4-1.259a7.544,7.544,0,0,0-6.432,3.286c-1.594,2.345-1.218,4.83-.769,7.455q1.314,7.684,2.634,15.368,2.779,16.178,5.58,32.349,3.126,18.047,6.269,36.09c.49,2.818.615,5.877,2.7,8.055,1.582,1.653,3.61,2.124,5.8,2.3,2.444.2,4.891.375,7.339.54,14.64.988,29.3,1.707,43.956,2.411q24.131,1.158,48.271,2.117,8.911.354,17.827.662c2.015.067,4.032.145,6.049.185,3.614.071,6.341-1.782,9.309-3.524,14.6-8.566,29.265-17.014,43.682-25.883,3.315-2.039,6.615-4.1,9.878-6.222,2.58-1.677.177-5.834-2.423-4.144Z"></path><path class="c" d="M109.131,299.962c26.267,1.561,52.533,3.136,78.818,4.335q11.739.535,23.481.97c3.089.114,3.085-4.686,0-4.8-26.81-.989-53.6-2.434-80.381-4.006q-10.959-.644-21.918-1.3c-3.085-.183-3.075,4.618,0,4.8Z"></path><path class="c" d="M311.7,197.34q5.325,19.565,9.72,39.366c.669,3.014,5.3,1.738,4.628-1.276q-4.392-19.8-9.72-39.366c-.81-2.978-5.442-1.714-4.628,1.276Z"></path><path class="c" d="M293.931,239.131c12.943,1.158,26.1-.249,39.037-.963,3.072-.17,3.091-4.971,0-4.8-12.933.714-26.094,2.121-39.037.963a2.417,2.417,0,0,0-2.4,2.4,2.45,2.45,0,0,0,2.4,2.4Z"></path><path class="c" d="M220.141,181.666a35.1,35.1,0,0,1,.685,6.2c.187,2.312.319,4.627.477,6.941a83.21,83.21,0,0,0,1.785,13.656,55.073,55.073,0,0,0,5.151,12.779c2.079,3.952,4.313,7.828,5.73,12.082a50.734,50.734,0,0,1,1.954,6.647c.454,2.448.767,4.905,1.415,7.315.8,2.98,5.433,1.715,4.628-1.276-.581-2.163-.91-4.363-1.284-6.567a47.09,47.09,0,0,0-1.517-5.593,68.4,68.4,0,0,0-5.5-12.629,63.022,63.022,0,0,1-5.481-12.257,65.045,65.045,0,0,1-2.013-13.232c-.188-2.621-.329-5.246-.541-7.866a42.414,42.414,0,0,0-.856-7.473c-.792-2.983-5.424-1.717-4.629,1.276Z"></path><path class="c" d="M226.691,216.613c-4.008,7.915-7.6,16.039-12.21,23.635-1.607,2.648,2.542,5.063,4.145,2.423,4.612-7.6,8.2-15.72,12.21-23.635,1.392-2.75-2.748-5.183-4.145-2.423Z"></path><path class="c" d="M290.663,109.4a63.307,63.307,0,0,0,3.252,8.7,16.512,16.512,0,0,0,1.417,2.837,13.964,13.964,0,0,0,1.812,2.022A59.948,59.948,0,0,0,307.886,131c2.67,1.568,5.088-2.579,2.423-4.144a54.093,54.093,0,0,1-9.614-7.143,18.245,18.245,0,0,1-1.509-1.575c.16.189.244.4.084.077-.08-.162-.169-.32-.249-.481-.308-.625-.6-1.257-.889-1.892a55.285,55.285,0,0,1-2.84-7.722c-.836-2.969-5.468-1.707-4.629,1.276Z"></path><path class="c" d="M236.049,132.082l.388-.166c.619-.265-.258.1.1-.042.255-.1.509-.211.763-.315q.855-.35,1.714-.687c1.152-.456,2.307-.9,3.459-1.36q2.067-.82,4.116-1.688a15.39,15.39,0,0,0,4.376-2.427,2.413,2.413,0,0,0,0-3.394,2.46,2.46,0,0,0-3.394,0c-.072.063-.289.239-.088.089-.13.1-.27.187-.409.271a8.486,8.486,0,0,1-1.048.516q-.5.222-1.01.439l-.61.26-.138.058q-1.836.765-3.687,1.49c-2.327.917-4.657,1.823-6.955,2.812a2.406,2.406,0,0,0-.861,3.283,2.475,2.475,0,0,0,3.284.861Z"></path><path class="c" d="M302.033,72.145c2.087-1.936,5.548-1.712,7.718-.017,2.6,2.031,3.542,5.637,3.166,8.8-.925,7.773-7.764,13.533-14.5,16.473a2.416,2.416,0,0,0-.861,3.284,2.461,2.461,0,0,0,3.284.861c7.083-3.091,13.156-8.616,15.847-15.982,2.542-6.955.472-16.03-7.014-18.877a10.734,10.734,0,0,0-11.032,2.064c-2.27,2.106,1.13,5.494,3.394,3.394Z"></path><path class="c" d="M213.774,70.473a83.675,83.675,0,0,0,4.905,26.372c3.117,8.314,8.22,16.447,15.279,21.978,13.866,10.865,34.228,11.4,48.921,1.88a58.868,58.868,0,0,0,18.793-20.033c1.536-2.685-2.61-5.106-4.145-2.422a54.939,54.939,0,0,1-14.708,16.663,38.223,38.223,0,0,1-43.513,1.878c-6.9-4.461-12.047-11.762-15.219-19.247a76.368,76.368,0,0,1-5.513-27.069c-.112-3.08-4.912-3.095-4.8,0Z"></path><path class="c" d="M270.792,39.033c2.218,6.142,4.732,12.545,8.4,17.987,3.414,5.062,7.875,10.621,13.537,13.258a2.47,2.47,0,0,0,3.284-.861,2.42,2.42,0,0,0-.861-3.284c-5.042-2.348-8.992-7.281-12-11.816-3.346-5.041-5.684-10.894-7.729-16.56a2.463,2.463,0,0,0-2.952-1.676,2.421,2.421,0,0,0-1.677,2.952Z"></path><path class="c" d="M271.3,36.438a54.546,54.546,0,0,1-12.616,11.173,70.505,70.505,0,0,1-7.648,4.3c-1.338.648-2.693,1.26-4.071,1.817a22.624,22.624,0,0,1-4.3,1.536h1.277q.653,2.013.736.969c.026-.164.05-.327.074-.49.061-.405.118-.811.174-1.217.117-.857.23-1.714.329-2.573.187-1.613.329-3.231.443-4.851.153-2.18-2.674-3.025-4.1-1.7-4.5,4.2-9.038,8.35-13.687,12.379a120.871,120.871,0,0,1-13.063,10.446c-2.583,1.673-.18,5.83,2.423,4.144a127.85,127.85,0,0,0,13.677-10.886c4.774-4.126,9.431-8.385,14.044-12.689l-4.1-1.7c-.18,2.545-.428,5.086-.811,7.609a5.178,5.178,0,0,0,.173,3.458,3.525,3.525,0,0,0,3.044,1.809,9.134,9.134,0,0,0,2.96-.854c1.062-.394,2.112-.815,3.156-1.254,2.01-.844,3.989-1.754,5.923-2.761A61.587,61.587,0,0,0,274.7,39.832a2.471,2.471,0,0,0,0-3.394,2.419,2.419,0,0,0-3.395,0Z"></path><path class="c" d="M230.918,264.488a2.382,2.382,0,0,1-1.492-.274c-.667-.455-.483-1.209-.28-1.9.147-.5.058-.191,0-.072a4.164,4.164,0,0,1,.366-.621,9.831,9.831,0,0,1,1.023-1.147,19.735,19.735,0,0,1,1.556-1.42,102.968,102.968,0,0,1,9.461-6.964c4.53-2.958,9.449-6.077,14.624-7.759a13.116,13.116,0,0,1,7.763-.342,45.166,45.166,0,0,1,6.519,2.549,30.536,30.536,0,0,0,8.35,2.633c2.706.355,5.311-.194,8.009-.3,3.078-.122,3.094-4.923,0-4.8-2.557.1-5.133.736-7.691.332a31.585,31.585,0,0,1-7.912-2.76,31.645,31.645,0,0,0-8.155-2.746,18.65,18.65,0,0,0-9.422,1.256,81.435,81.435,0,0,0-17.156,9.582,63.524,63.524,0,0,0-9.34,7.347c-2.076,2.134-3.689,5.016-2.723,8.091,1.034,3.292,4.665,4.5,7.773,3.944a2.423,2.423,0,0,0,1.677-2.953,2.455,2.455,0,0,0-2.953-1.676Z"></path><path class="c" d="M247.988,252.2a120.812,120.812,0,0,0-12.731,9.011c-3.5,2.778-8.323,6.482-6.787,11.627a5.393,5.393,0,0,0,4.238,3.839c2.283.426,4.339-.33,6.388-1.27a2.419,2.419,0,0,0,.861-3.284,2.456,2.456,0,0,0-3.283-.861,10.3,10.3,0,0,1-1.8.659,2.348,2.348,0,0,1-1.162.072c-.106-.024-.609-.228-.445-.146.135.068-.087-.1-.129-.183a2.011,2.011,0,0,1-.123-1.182c-.029.219.092-.338.121-.418-.057.162.213-.4.3-.526.133-.208.412-.807.652-.935-.142.076-.4.458-.1.147.1-.111.2-.226.305-.336.23-.244.47-.478.713-.709a81.547,81.547,0,0,1,9.722-7.6c1.859-1.307,3.742-2.586,5.69-3.757,2.645-1.589.234-5.741-2.423-4.144Z"></path><path class="c" d="M255.834,257.164c-3.625,2.281-7.115,4.761-10.6,7.241-3.18,2.261-6.636,4.373-8.362,8.043-1.639,3.486-.4,7.64,3.4,9.006,4.079,1.468,7.849-1.627,11.032-3.756,4.171-2.79,8.237-5.737,12.474-8.43,2.6-1.653.194-5.809-2.423-4.145-3.98,2.531-7.81,5.283-11.717,7.922a37.733,37.733,0,0,1-5.858,3.7c-.917.392-2.258.447-2.734-.442-.535-1,.213-2.116.994-3.159a20.411,20.411,0,0,1,4.873-4.07c3.74-2.654,7.464-5.326,11.347-7.768,2.608-1.641.2-5.8-2.423-4.145Z"></path><path class="c" d="M260.566,266.435a76.318,76.318,0,0,0-4.588,7.5c-1.366,2.406-3.384,4.691-3.151,7.63a5.243,5.243,0,0,0,2.265,4.126,5.408,5.408,0,0,0,4.688.529,10.531,10.531,0,0,0,3.245-1.943q1.862-1.5,3.658-3.079a81.663,81.663,0,0,0,7.2-7.2,2.458,2.458,0,0,0,0-3.394,2.424,2.424,0,0,0-3.395,0q-2.568,2.913-5.4,5.572-1.471,1.376-3.007,2.681-.74.631-1.492,1.25-.414.342-.833.681a2.525,2.525,0,0,1-.364.293c.151-.077.475-.338.129-.1a11.256,11.256,0,0,1-1.007.612c-.357.191.2-.006-.21.071-.142.026-.279.079-.422.1.335-.056.086.043-.019-.028.023.016.528.193-.033-.007-.012,0-.339-.15-.158-.055.274.144-.152-.28.115.146-.148-.236-.132-.451-.087-.115a2.353,2.353,0,0,1-.076-.285q-.054-.264.007.148l-.014-.2c0-.2,0-.4.007-.6.008-.453.014-.031-.01.062.023-.089.033-.182.06-.27s.054-.172.072-.257c.085-.4-.013.039-.065.122.163-.26.32-.525.485-.784.709-1.114,1.378-2.254,2.028-3.4a74.676,74.676,0,0,1,4.521-7.385,2.417,2.417,0,0,0-.861-3.283,2.455,2.455,0,0,0-3.284.861Z"></path><path class="c" d="M272.512,275.647a18.267,18.267,0,0,0,12.611-.926c2.98-1.282,5.718-3.059,8.686-4.346a2.417,2.417,0,0,0,.861-3.284,2.463,2.463,0,0,0-3.284-.861c-2.636,1.143-5.08,2.721-7.7,3.911a13.772,13.772,0,0,1-9.9.878c-2.966-.884-4.234,3.747-1.276,4.628Z"></path><path class="c" d="M193.878,209.41c1.836-7.416,3.373-14.9,4.782-22.406,1.406-7.491,2.694-14.989,4.662-22.359q1.47-5.5,3.332-10.888a31.968,31.968,0,0,1,4.3-8.541c4.139-5.629,10.774-8.619,17.023-11.228,1.6-.666,3.225-1.263,4.815-1.945.334-.143.71-.161.269-.308.141.047.434.482.538.592a20.722,20.722,0,0,0,1.841,1.727,30.98,30.98,0,0,0,7.778,4.672c5.869,2.494,12.053,3.3,18.389,3.479,14.069.391,27.957-2.623,41.046-7.642q2.166-.829,4.307-1.724,1.262-.526,2.517-1.066c1.031-.444.957-.591,1.947-.155a78.893,78.893,0,0,1,9.489,4.882,47.6,47.6,0,0,1,14.521,13.518,74.217,74.217,0,0,1,8.827,17.668c2.162,6.3,3.626,12.91,5.172,19.384,2.987,12.509,5.319,25.152,7.35,37.849q.835,5.223,1.626,10.454a81.629,81.629,0,0,1,1.212,9.274,58.428,58.428,0,0,1-.368,8.55,19.363,19.363,0,0,1-1.81,7.02c-2.881,5.38-8.677,8.291-14.432,9.52a93.977,93.977,0,0,1-11.025,1.32c-1.895.175-3.786.341-5.686.449-9.239.525-18.5.675-27.754.835q-2,.034-4,.064l2.4,2.4a69.453,69.453,0,0,0-1.495-10.352,82.013,82.013,0,0,0-4.353-15.38,31.731,31.731,0,0,0-4.035-7.48,2.482,2.482,0,0,0-3.284-.861,2.416,2.416,0,0,0-.861,3.284c3.83,4.962,5.566,11.424,6.984,17.437q1.017,4.313,1.7,8.694.135.875.256,1.75c-.085-.617.027.209.041.322.028.228.056.457.082.685.072.632.142,1.265.168,1.9a2.439,2.439,0,0,0,2.4,2.4c8.764-.13,17.53-.3,26.288-.643,4.64-.183,9.242-.539,13.867-.943,7.139-.623,14.486-1.549,20.444-5.887a21.527,21.527,0,0,0,6.448-7.093,23.827,23.827,0,0,0,2.338-8.4,60.371,60.371,0,0,0,.513-8.934,76.1,76.1,0,0,0-1.194-9.834c-2.045-13.509-4.2-27.008-7.073-40.37q-2.15-10.01-4.78-19.908a97.417,97.417,0,0,0-7.095-19.536A57.425,57.425,0,0,0,332.174,139a67.153,67.153,0,0,0-18.738-11.709,5.1,5.1,0,0,0-5.607,0q-2.423,1.058-4.88,2.03c-3.268,1.294-6.58,2.48-9.938,3.52a100.357,100.357,0,0,1-20.712,4.233c-6.762.605-13.981.792-20.648-.673a34.79,34.79,0,0,1-8.374-2.912,26.721,26.721,0,0,1-3.779-2.309c-1.206-.9-2.129-2.036-3.24-3.023-1.544-1.369-3.381-1.279-5.186-.57q-2.922,1.149-5.811,2.377a56.288,56.288,0,0,0-10.062,5.046,33.319,33.319,0,0,0-7.906,7.14,34.168,34.168,0,0,0-4.817,9.058c-5.443,14.828-7.436,30.471-10.687,45.845q-1.176,5.562-2.539,11.08c-.742,3,3.885,4.278,4.628,1.276Z"></path><path class="c" d="M45.094,24.792A67.1,67.1,0,0,0,9.653,53.642C1.551,67.252-1.169,83.1.444,98.744c1.409,13.665,6.018,26.92,14.835,37.6,8.343,10.1,20.08,16.876,32.711,20.069a85.7,85.7,0,0,0,22.364,2.45,79.992,79.992,0,0,0,27.4-4.948q3.06-1.179,6-2.635l-1.85.242c6.791,2.777,13.647,5.377,20.54,7.889,1.775.647,3.39-1.3,2.952-2.952-1.693-6.4-3.343-12.812-5.17-19.175l-.618,2.335c8.648-9.083,14-20.74,16.315-33,2.318-12.282,2.282-25.219-1.253-37.267a67.884,67.884,0,0,0-16.286-28.066,66.872,66.872,0,0,0-28.156-17.2,73.889,73.889,0,0,0-39.949-.865c-1.751.454-3.48.983-5.19,1.572-2.9,1-1.655,5.639,1.276,4.629a69.079,69.079,0,0,1,41.945-.9,62.043,62.043,0,0,1,28.714,18.357,63.532,63.532,0,0,1,14.569,30.2,74.5,74.5,0,0,1,.859,19.237,75.389,75.389,0,0,1-4.33,20.61,56.111,56.111,0,0,1-9.153,16.194q-.714.869-1.464,1.708a9.342,9.342,0,0,0-1.787,2.167c-.444,1.009.026,2.07.307,3.061q.375,1.317.74,2.636c.856,3.091,1.673,6.193,2.489,9.294q.754,2.874,1.514,5.747l2.952-2.952c-4.475-1.632-8.943-3.285-13.38-5.02q-2.879-1.125-5.74-2.291a12.079,12.079,0,0,0-1.42-.579,3.229,3.229,0,0,0-2.358.493c-.958.468-1.927.915-2.91,1.326a75.01,75.01,0,0,1-28.253,5.361c-14.254.133-28.611-3.049-40.379-11.268-10.818-7.555-18.219-19.1-21.742-31.845C3.414,96.009,3.65,79.554,9.35,65.061A62.284,62.284,0,0,1,40.964,31.6c1.765-.819,3.571-1.533,5.406-2.178a2.461,2.461,0,0,0,1.677-2.953A2.422,2.422,0,0,0,45.094,24.792Z"></path><path class="c" d="M47.859,74.106c14.859.222,29.733-.022,44.594-.017q2.41,0,4.82.006a6.3,6.3,0,0,0,1.859.007c.347-.142-.056.148-.079-.062l-.149-.232q.066-.528-.022-.072a4.96,4.96,0,0,0-.314,1.384Q96.945,82.265,95.3,89.4q-.775,3.372-1.554,6.744l-.579,2.5c-.045.192-.373,1.029-.048.6.278-.369.285.059.084-.074-.1-.07-.523,0-.653,0q-5.571.015-11.144.038c-8.114.03-16.227.084-24.341.086-3.089,0-3.094,4.8,0,4.8,7.467,0,14.935-.051,22.4-.079q6.182-.023,12.362-.043a10.417,10.417,0,0,0,2.671-.163,4.584,4.584,0,0,0,3.207-3.512c.5-1.98.921-3.982,1.38-5.971q1.787-7.756,3.56-15.518c.524-2.294,1.761-5.272.375-7.432-1.411-2.2-3.827-2.08-6.124-2.086-8.6-.02-17.209,0-25.814.017-7.739.011-15.485.11-23.224-.005-3.09-.046-3.091,4.754,0,4.8Z"></path><path class="c" d="M54.9,88.489c9.9,0,19.808-.051,29.713-.078,1.509,0,3.019-.011,4.528-.011,3.089,0,3.094-4.8,0-4.8-9.531,0-19.062.054-28.593.078q-2.825.008-5.648.011c-3.089,0-3.094,4.8,0,4.8Z"></path><path class="c" d="M60.811,79.339c.536,4.839.931,9.7,1.558,14.525a2.465,2.465,0,0,0,2.4,2.4c1.162-.053,2.573-1.067,2.4-2.4-.627-4.828-1.022-9.686-1.558-14.525a2.459,2.459,0,0,0-2.4-2.4,2.426,2.426,0,0,0-2.4,2.4Z"></path><path class="c" d="M78.677,79.339c-.4,4.986-.819,9.972-1.154,14.962a2.412,2.412,0,0,0,2.4,2.4,2.456,2.456,0,0,0,2.4-2.4c.335-4.99.754-9.976,1.154-14.962a2.412,2.412,0,0,0-2.4-2.4,2.461,2.461,0,0,0-2.4,2.4Z"></path><path class="c" d="M31.058,66.26q1.794,0,3.589.008a6.332,6.332,0,0,0,1.633,0c-.221.3-.394-.687-.293-.007a27.061,27.061,0,0,0,.921,3.229q1.328,4.668,2.647,9.338,3.142,11.094,6.3,22.183,1.224,4.273,2.468,8.54c.42,1.429.72,3.025,1.846,4.084,1.328,1.249,3,1.2,4.681,1.207l19.63.035q8.9.015,17.8.028c3.088,0,3.093-4.8,0-4.8q-17.839,0-35.678-.06a17.871,17.871,0,0,0-3.163,0c-.712.135.44-.013.138.329.04-.046-.135-.449-.158-.528q-.234-.781-.464-1.566c-.849-2.887-1.678-5.78-2.506-8.673q-3.2-11.159-6.345-22.328-1.429-5.049-2.863-10.1c-.424-1.489-.708-3.212-1.8-4.37C38.3,61.6,36.788,61.473,35.228,61.47c-1.39,0-2.78-.009-4.17-.01-3.089,0-3.094,4.8,0,4.8Z"></path><path class="c" d="M58.267,118.321a4.917,4.917,0,0,1,5.014,4.984,4.7,4.7,0,0,1-5.014,5.076c-3.146,0-5.014-1.966-5.014-5.076A4.912,4.912,0,0,1,58.267,118.321Z"></path><path class="c" d="M86.9,118.321a4.918,4.918,0,0,1,5.014,4.984,4.7,4.7,0,0,1-5.015,5.076c-3.146,0-5.014-1.966-5.014-5.076A4.913,4.913,0,0,1,86.9,118.321Z"></path><path class="c" d="M250.108,87.041a23.98,23.98,0,0,0-.86,2.516c-.419,1.424-.923,3.215.269,4.42a3.965,3.965,0,0,0,.88.637,4.2,4.2,0,0,0,1.035.4,7.257,7.257,0,0,0,1.479.1,2.466,2.466,0,0,0,1.7-.7,2.4,2.4,0,0,0,0-3.394,2.507,2.507,0,0,0-1.7-.7,6.344,6.344,0,0,1-.78-.006l.638.086a1.972,1.972,0,0,1-.384-.107l.574.242a2.547,2.547,0,0,1-.516-.309l.486.375a.1.1,0,0,1-.018-.017l.376.485a.236.236,0,0,1-.022-.038l.242.574a.414.414,0,0,1-.021-.091l.085.638a1.7,1.7,0,0,1,.015-.377l-.085.638a13.392,13.392,0,0,1,.583-2.251c.2-.62.4-1.245.652-1.844a2.4,2.4,0,0,0-.242-1.85,2.4,2.4,0,0,0-3.283-.861l-.486.376a2.4,2.4,0,0,0-.617,1.059Z"></path><path class="c" d="M232.141,76.505c-.68,2.13-.376,7.068,3.507,7.563,5.145.067,5.55-5.887,3.88-8.723C238.161,73.023,234.012,71.988,232.141,76.505Z"></path><path class="c" d="M276.3,76.685c.643,2.253.087,7.393-4.163,7.743-5.6-.15-5.773-6.382-3.826-9.27C269.9,72.794,274.465,71.891,276.3,76.685Z"></path><path class="c" d="M247.92,108.3a17.777,17.777,0,0,0,7.348.671,20.745,20.745,0,0,0,7.884-2.245,2.422,2.422,0,0,0,.861-3.284,2.452,2.452,0,0,0-3.284-.861c-.219.119-.44.234-.666.341-.006,0-.551.249-.238.113.28-.123-.111.042-.162.062q-.79.3-1.608.529-.837.231-1.693.387c-.135.025-.27.048-.406.07-.052.009-.491.079-.19.033s-.138.016-.191.022c-.17.02-.34.037-.511.052a19.514,19.514,0,0,1-3.288.026c-.158-.012-.316-.029-.474-.044-.418-.039.08.025.084.016a5.163,5.163,0,0,1-.714-.122,11.551,11.551,0,0,1-1.476-.395,2.416,2.416,0,0,0-2.952,1.676,2.458,2.458,0,0,0,1.676,2.953Z"></path></svg>