<?xml version="1.0" encoding="utf-8"?>
<!-- Generator: Adobe Illustrator 24.3.0, SVG Export Plug-In . SVG Version: 6.00 Build 0)  -->
<svg version="1.1" id="Layer_1" xmlns="http://www.w3.org/2000/svg" xmlns:xlink="http://www.w3.org/1999/xlink" x="0px" y="0px"
	 viewBox="0 0 2000 2000" style="enable-background:new 0 0 2000 2000;" xml:space="preserve">
<style type="text/css">
	.st0{fill:#FFEBF3;}
	.st1{fill:#EDC0D8;}
	.st2{fill:#F7DAE8;}
	.st3{enable-background:new    ;}
	.st4{fill:#868686;}
	.st5{fill:#7F7F7F;}
	.st6{fill:#595959;}
	.st7{fill:#FDC702;}
	.st8{fill:#D88D13;}
	.st9{fill:#FFA600;}
	.st10{fill:#858585;}
	.st11{fill:#FEEDD1;}
	.st12{fill:#535353;}
	.st13{fill:#81BCCC;}
</style>
<g>
	<rect class="st0" width="2000" height="2000"/>
	<g>
		<path class="st1" d="M1904.35,1292.06c34.6,16.69,36.3,44.85,3.8,62.91L938.44,1893.7c-32.51,18.06-86.9,19.17-121.5,2.48
			L246.5,1621.07c-34.6-16.69-36.3-44.85-3.79-62.91l969.71-538.73c32.5-18.06,86.9-19.17,121.5-2.48L1904.35,1292.06z"/>
	</g>
	<g>
		<polygon class="st2" points="1222.44,625.95 2000,986.29 2000,0 1222.44,0 		"/>
		<polygon class="st1" points="1222.44,625.95 0,1319.47 0,0 1222.44,0 		"/>
	</g>
</g>
<g>
	<g>
		<g class="st3">
			<g>
				<polygon class="st4" points="1734.45,1134.73 1671.53,1172.01 1601.79,1139.49 1664.71,1102.21 				"/>
			</g>
			<g>
				<polygon class="st5" points="1734.45,1134.73 1736.37,1291.37 1673.45,1328.65 1671.53,1172.01 				"/>
			</g>
			<g>
				<polygon class="st6" points="1671.53,1172.01 1673.45,1328.65 1603.7,1296.13 1601.79,1139.49 				"/>
			</g>
		</g>
		<g class="st3">
			<g>
				<polygon class="st4" points="1223.11,896.29 1160.19,933.57 1090.45,901.05 1153.38,863.77 				"/>
			</g>
			<g>
				<polygon class="st5" points="1223.11,896.29 1225.03,1052.93 1162.11,1090.21 1160.19,933.57 				"/>
			</g>
			<g>
				<polygon class="st6" points="1160.19,933.57 1162.11,1090.21 1092.37,1057.69 1090.45,901.05 				"/>
			</g>
		</g>
		<g class="st3">
			<g>
				<polygon class="st4" points="874.4,1644.28 811.48,1681.56 741.73,1649.04 804.66,1611.76 				"/>
			</g>
			<g>
				<polygon class="st5" points="874.4,1644.28 876.31,1800.93 813.39,1838.21 811.48,1681.56 				"/>
			</g>
			<g>
				<polygon class="st6" points="811.48,1681.56 813.39,1838.21 743.65,1805.68 741.73,1649.04 				"/>
			</g>
		</g>
		<g class="st3">
			<g>
				<polygon class="st4" points="363.06,1405.84 300.13,1443.12 230.4,1410.6 293.32,1373.32 				"/>
			</g>
			<g>
				<polygon class="st5" points="363.06,1405.84 364.97,1562.48 302.05,1599.76 300.13,1443.12 				"/>
			</g>
			<g>
				<polygon class="st6" points="300.13,1443.12 302.05,1599.76 232.32,1567.25 230.4,1410.6 				"/>
			</g>
		</g>
	</g>
	<g>
		<path class="st7" d="M1769.88,1083.97c32.84,15.84,34.45,42.56,3.6,59.7l-920.29,511.27c-30.85,17.14-82.47,18.19-115.31,2.36
			l-541.36-261.09c-32.84-15.84-34.45-42.56-3.6-59.7l920.29-511.27c30.85-17.14,82.47-18.19,115.3-2.35L1769.88,1083.97z"/>
	</g>
	<g>
		<path class="st8" d="M1602.63,1154.34c28.78,13.88,30.19,37.31,3.16,52.33l-723.41,401.89c-27.03,15.02-72.28,15.94-101.06,2.06
			l-417.55-201.38c-28.78-13.88-30.19-37.31-3.16-52.32l723.41-401.89c27.03-15.02,72.29-15.94,101.06-2.06L1602.63,1154.34z"/>
	</g>
	<g>
		<path class="st9" d="M776.97,1667.69c-0.37-0.04-0.73-0.09-1.1-0.13c-0.84-0.09-1.69-0.19-2.53-0.3c-0.48-0.06-0.95-0.13-1.43-0.2
			c-0.73-0.1-1.47-0.21-2.2-0.32c-0.5-0.08-1-0.16-1.5-0.24c-0.69-0.11-1.38-0.23-2.06-0.36c-0.56-0.1-1.11-0.21-1.66-0.31
			c-0.65-0.13-1.31-0.26-1.96-0.4c-0.55-0.11-1.09-0.23-1.64-0.35c-0.61-0.14-1.21-0.28-1.82-0.42c-0.67-0.16-1.34-0.33-2.01-0.5
			c-0.57-0.15-1.13-0.29-1.69-0.45c-0.66-0.18-1.32-0.37-1.97-0.56c-0.52-0.15-1.03-0.3-1.54-0.46c-1.06-0.32-2.1-0.66-3.14-1.01
			c-0.3-0.1-0.6-0.2-0.9-0.3c-1.31-0.46-2.6-0.94-3.87-1.44c-0.68-0.27-1.35-0.55-2.02-0.83c-0.35-0.15-0.7-0.29-1.05-0.44
			c-1.02-0.45-2.03-0.91-3.01-1.38L196.51,1396.2c-12.77-6.16-20.82-13.96-24.07-22.21c-1.08-2.75-1.64-5.55-1.65-8.35l0.37,63.48
			c0.06,11.21,8.7,22.35,25.72,30.56l541.36,261.09c0.99,0.48,2,0.94,3.02,1.38c0.34,0.15,0.69,0.29,1.03,0.43
			c0.6,0.25,1.2,0.51,1.81,0.76c0.07,0.03,0.15,0.05,0.22,0.08c1.27,0.5,2.56,0.98,3.87,1.44c0.3,0.1,0.6,0.2,0.9,0.3
			c1.03,0.35,2.08,0.69,3.13,1.01c0.19,0.06,0.37,0.13,0.57,0.18c0.32,0.1,0.65,0.18,0.98,0.28c0.65,0.19,1.31,0.38,1.97,0.56
			c0.56,0.15,1.13,0.3,1.69,0.45c0.67,0.17,1.34,0.34,2.01,0.5c0.3,0.07,0.59,0.15,0.89,0.22c0.31,0.07,0.62,0.13,0.93,0.2
			c0.54,0.12,1.09,0.24,1.64,0.35c0.65,0.14,1.31,0.27,1.96,0.4c0.55,0.11,1.1,0.21,1.65,0.31c0.27,0.05,0.53,0.1,0.8,0.15
			c0.42,0.07,0.85,0.14,1.27,0.21c0.5,0.08,0.99,0.17,1.49,0.24c0.73,0.11,1.46,0.22,2.2,0.32c0.48,0.07,0.95,0.14,1.43,0.2
			c0.14,0.02,0.28,0.04,0.42,0.06c0.7,0.09,1.4,0.16,2.1,0.24c0.37,0.04,0.73,0.09,1.1,0.13c0.13,0.01,0.26,0.02,0.39,0.04
			l0.05-63.44C777.51,1667.74,777.24,1667.72,776.97,1667.69z"/>
		<path class="st8" d="M1795.6,1114.53c0,0.42-0.03,0.85-0.05,1.27c-0.01,0.27-0.02,0.53-0.04,0.8c-0.03,0.39-0.09,0.78-0.15,1.17
			c-0.03,0.24-0.06,0.49-0.1,0.73c-0.1,0.6-0.23,1.19-0.39,1.79c-0.01,0.03-0.01,0.06-0.02,0.08c-0.16,0.62-0.36,1.24-0.57,1.86
			c-0.07,0.2-0.16,0.39-0.23,0.59c-0.16,0.42-0.32,0.84-0.5,1.26c-0.11,0.24-0.23,0.48-0.34,0.72c-0.18,0.37-0.35,0.74-0.55,1.11
			c-0.14,0.27-0.3,0.54-0.46,0.81c-0.2,0.34-0.4,0.69-0.61,1.03c-0.17,0.27-0.35,0.54-0.54,0.81c-0.22,0.33-0.45,0.66-0.68,0.99
			c-0.23,0.31-0.47,0.62-0.71,0.93s-0.48,0.61-0.73,0.92c-0.26,0.31-0.52,0.61-0.8,0.92c-0.26,0.29-0.52,0.58-0.79,0.87
			c-0.38,0.4-0.77,0.8-1.18,1.19c-0.25,0.24-0.48,0.48-0.74,0.72c-0.47,0.44-0.97,0.88-1.48,1.32c-0.22,0.19-0.43,0.39-0.66,0.58
			c-0.11,0.09-0.23,0.19-0.34,0.28c-0.52,0.43-1.06,0.85-1.61,1.27c-0.19,0.14-0.38,0.28-0.57,0.43c-0.61,0.45-1.24,0.9-1.89,1.34
			c-0.07,0.05-0.14,0.1-0.22,0.15c-0.73,0.49-1.49,0.98-2.27,1.46c-0.16,0.1-0.33,0.2-0.49,0.3c-0.78,0.47-1.58,0.94-2.41,1.41
			l-920.29,511.27c-1.05,0.58-2.13,1.15-3.23,1.69c-0.36,0.18-0.72,0.35-1.09,0.52c-0.76,0.36-1.52,0.72-2.29,1.07
			c-0.43,0.19-0.87,0.38-1.31,0.57c-0.73,0.31-1.46,0.62-2.2,0.91c-0.46,0.19-0.93,0.37-1.4,0.55c-0.75,0.29-1.51,0.56-2.27,0.83
			c-0.47,0.17-0.93,0.33-1.4,0.49c-0.83,0.28-1.68,0.55-2.52,0.82c-0.41,0.13-0.82,0.26-1.23,0.39c-1.21,0.36-2.43,0.71-3.67,1.04
			c-0.06,0.02-0.11,0.03-0.17,0.05c-1.3,0.34-2.61,0.66-3.93,0.97c-0.42,0.1-0.85,0.18-1.27,0.28c-0.91,0.2-1.82,0.4-2.74,0.58
			c-0.43,0.09-0.87,0.16-1.3,0.25c-1.25,0.24-2.52,0.46-3.79,0.66c-0.38,0.06-0.76,0.13-1.14,0.19c-1.58,0.24-3.18,0.46-4.78,0.65
			c-0.46,0.06-0.93,0.1-1.39,0.15c-0.9,0.1-1.8,0.19-2.7,0.28c-0.54,0.05-1.09,0.09-1.63,0.14c-0.84,0.07-1.69,0.13-2.54,0.19
			c-0.62,0.04-1.25,0.08-1.88,0.11s-1.26,0.06-1.9,0.09c-0.66,0.03-1.32,0.05-1.98,0.07c-0.63,0.02-1.26,0.03-1.9,0.04
			c-0.7,0.01-1.4,0.02-2.1,0.02c-0.55,0-1.09,0-1.64,0c-0.73-0.01-1.45-0.02-2.18-0.04c-0.53-0.01-1.06-0.02-1.6-0.04
			c-0.8-0.03-1.6-0.06-2.4-0.1c-0.43-0.02-0.87-0.04-1.3-0.06c-1.05-0.06-2.09-0.13-3.14-0.21c-0.18-0.01-0.37-0.02-0.56-0.04
			c-0.95-0.08-1.89-0.17-2.84-0.26l-0.05,63.44c1.07,0.11,2.14,0.21,3.21,0.3c0.02,0,0.03,0,0.05,0c0.18,0.01,0.37,0.02,0.56,0.04
			c1.04,0.08,2.09,0.15,3.14,0.21c0.43,0.02,0.86,0.04,1.29,0.06c0.64,0.03,1.27,0.07,1.91,0.09c0.17,0.01,0.33,0.01,0.5,0.01
			c0.53,0.02,1.06,0.03,1.59,0.04c0.73,0.02,1.45,0.03,2.18,0.04c0.55,0,1.09,0,1.64,0c0.44,0,0.88,0.01,1.32,0
			c0.26,0,0.52-0.01,0.78-0.02c0.63-0.01,1.26-0.03,1.89-0.04c0.66-0.02,1.33-0.04,1.99-0.07c0.63-0.03,1.26-0.06,1.89-0.09
			c0.38-0.02,0.76-0.03,1.15-0.05c0.25-0.01,0.49-0.04,0.74-0.05c0.84-0.05,1.69-0.12,2.53-0.19c0.55-0.04,1.1-0.09,1.64-0.14
			c0.9-0.08,1.79-0.18,2.68-0.28c0.39-0.04,0.77-0.07,1.16-0.12c0.08-0.01,0.16-0.02,0.25-0.03c1.6-0.19,3.19-0.41,4.78-0.65
			c0.39-0.06,0.77-0.12,1.15-0.19c1.27-0.2,2.53-0.42,3.78-0.66c0.26-0.05,0.52-0.09,0.77-0.13c0.18-0.03,0.35-0.08,0.53-0.11
			c0.92-0.18,1.83-0.38,2.74-0.58c0.42-0.09,0.85-0.18,1.27-0.28c1.32-0.31,2.64-0.63,3.93-0.97c0.06-0.02,0.13-0.04,0.19-0.05
			c1.23-0.33,2.44-0.67,3.65-1.04c0.42-0.13,0.83-0.26,1.24-0.39c0.85-0.26,1.69-0.53,2.52-0.82c0.47-0.16,0.93-0.33,1.4-0.49
			c0.77-0.27,1.52-0.55,2.27-0.83c0.47-0.18,0.94-0.36,1.4-0.55c0.74-0.3,1.47-0.6,2.2-0.91c0.44-0.19,0.88-0.37,1.32-0.57
			c0.77-0.35,1.53-0.7,2.29-1.07c0.36-0.17,0.73-0.34,1.09-0.52c1.1-0.55,2.18-1.11,3.23-1.69l920.29-511.27
			c0.83-0.46,1.63-0.93,2.41-1.41c0.16-0.1,0.33-0.2,0.49-0.3c0.14-0.09,0.29-0.17,0.43-0.26c0.63-0.4,1.24-0.8,1.84-1.2
			c0.07-0.05,0.14-0.1,0.22-0.15c0.65-0.44,1.28-0.89,1.89-1.34c0.19-0.14,0.38-0.29,0.57-0.43c0.55-0.42,1.09-0.84,1.61-1.27
			c0.12-0.09,0.24-0.19,0.35-0.28c0.04-0.03,0.08-0.07,0.12-0.1c0.19-0.16,0.35-0.32,0.54-0.48c0.51-0.44,1.01-0.88,1.48-1.32
			c0.26-0.24,0.49-0.48,0.74-0.73c0.4-0.4,0.8-0.79,1.17-1.19c0.09-0.1,0.2-0.19,0.29-0.29c0.18-0.19,0.34-0.39,0.51-0.59
			c0.27-0.3,0.54-0.61,0.79-0.92s0.49-0.61,0.73-0.92s0.48-0.62,0.71-0.93c0.08-0.11,0.17-0.22,0.25-0.33
			c0.15-0.22,0.29-0.44,0.43-0.66c0.18-0.27,0.36-0.54,0.53-0.81c0.22-0.34,0.41-0.69,0.61-1.03c0.15-0.27,0.31-0.54,0.45-0.81
			c0.04-0.08,0.09-0.16,0.13-0.23c0.15-0.29,0.28-0.59,0.42-0.88c0.11-0.24,0.24-0.48,0.34-0.72c0.18-0.42,0.34-0.84,0.5-1.26
			c0.07-0.2,0.16-0.39,0.23-0.59c0.01-0.02,0.02-0.05,0.03-0.07c0.21-0.6,0.39-1.19,0.54-1.79c0.01-0.03,0.01-0.06,0.02-0.08
			c0.15-0.57,0.27-1.14,0.38-1.71c0-0.03,0.01-0.05,0.01-0.08c0.04-0.24,0.07-0.49,0.1-0.73c0.06-0.39,0.11-0.78,0.15-1.17
			c0.02-0.27,0.03-0.53,0.04-0.8c0.02-0.31,0.05-0.62,0.05-0.93c0-0.11,0-0.23,0-0.34L1795.6,1114.53z"/>
	</g>
	<g>
		<g>
			<path class="st10" d="M1558.14,1077.83c28.78,13.88,30.19,37.31,3.16,52.33l-723.41,401.89c-27.03,15.02-72.28,15.94-101.06,2.06
				l-417.55-201.38c-28.78-13.88-30.19-37.31-3.16-52.32l723.41-401.89c27.03-15.02,72.29-15.94,101.06-2.06L1558.14,1077.83z"/>
		</g>
		<g>
			<path class="st11" d="M692.87,1426.37c9.26,4.47,9.72,12,1.02,16.84c-8.7,4.83-23.26,5.13-32.52,0.66l-162.86-78.54
				c-9.26-4.47-9.72-12.01-1.02-16.84s23.26-5.13,32.52-0.66L692.87,1426.37z"/>
		</g>
		<g>
			<path class="st11" d="M1542.1,1086.74c19.32,9.32,20.28,25.11,2.12,35.19l-615.24,341.8c-18.15,10.08-48.64,10.71-67.97,1.39
				l-417.55-201.38c-19.32-9.32-20.28-25.11-2.12-35.19l615.24-341.8c18.15-10.08,48.64-10.71,67.97-1.39L1542.1,1086.74z"/>
		</g>
		<path class="st12" d="M1580.68,1104.62c0,0.37-0.02,0.74-0.04,1.11c-0.01,0.23-0.02,0.47-0.04,0.7c-0.03,0.34-0.08,0.68-0.13,1.02
			c-0.03,0.22-0.05,0.43-0.09,0.65c-0.09,0.51-0.2,1.03-0.33,1.54c-0.01,0.03-0.01,0.07-0.02,0.1c-0.14,0.55-0.31,1.09-0.5,1.63
			c-0.06,0.17-0.14,0.34-0.2,0.52c-0.14,0.37-0.28,0.74-0.44,1.11c-0.09,0.21-0.2,0.42-0.3,0.63c-0.16,0.33-0.31,0.65-0.48,0.98
			c-0.13,0.24-0.26,0.47-0.4,0.71c-0.17,0.3-0.35,0.61-0.54,0.91c-0.15,0.24-0.31,0.47-0.47,0.71c-0.19,0.29-0.39,0.58-0.6,0.87
			c-0.2,0.27-0.41,0.54-0.62,0.82c-0.21,0.27-0.42,0.54-0.64,0.81s-0.46,0.54-0.7,0.8c-0.23,0.26-0.46,0.51-0.69,0.77
			c-0.33,0.35-0.68,0.7-1.03,1.05c-0.22,0.21-0.42,0.42-0.65,0.63c-0.42,0.39-0.85,0.78-1.3,1.16c-0.19,0.17-0.38,0.34-0.57,0.5
			c-0.1,0.08-0.2,0.16-0.3,0.24c-0.46,0.37-0.93,0.74-1.41,1.11c-0.17,0.13-0.33,0.25-0.5,0.38c-0.53,0.4-1.08,0.79-1.65,1.17
			c-0.07,0.05-0.13,0.09-0.2,0.14c-0.64,0.43-1.31,0.86-1.99,1.28c-0.14,0.09-0.29,0.18-0.43,0.26c-0.69,0.42-1.39,0.83-2.11,1.23
			L837.9,1532.05c-0.92,0.51-1.87,1-2.83,1.48c-0.31,0.16-0.64,0.3-0.95,0.46c-0.66,0.32-1.32,0.63-2,0.93
			c-0.38,0.17-0.77,0.33-1.16,0.5c-0.64,0.27-1.28,0.54-1.93,0.8c-0.41,0.16-0.82,0.32-1.23,0.48c-0.66,0.25-1.32,0.49-2,0.73
			c-0.41,0.14-0.81,0.29-1.22,0.43c-0.73,0.25-1.47,0.48-2.21,0.71c-0.36,0.11-0.72,0.23-1.09,0.34c-1.04,0.31-2.09,0.61-3.16,0.9
			c-0.07,0.02-0.14,0.04-0.21,0.06c-1.14,0.3-2.28,0.58-3.44,0.85c-0.37,0.08-0.74,0.16-1.11,0.24c-0.8,0.18-1.6,0.35-2.41,0.51
			c-0.38,0.07-0.76,0.14-1.13,0.21c-1.1,0.21-2.2,0.4-3.32,0.58c-0.34,0.05-0.67,0.11-1.01,0.16c-1.39,0.21-2.78,0.4-4.19,0.57
			c-0.4,0.05-0.81,0.09-1.22,0.13c-0.79,0.09-1.58,0.17-2.37,0.24c-0.48,0.04-0.96,0.08-1.43,0.12c-0.74,0.06-1.48,0.12-2.22,0.16
			c-0.55,0.04-1.1,0.07-1.65,0.09c-0.55,0.03-1.1,0.06-1.66,0.08c-0.58,0.02-1.16,0.04-1.74,0.06c-0.55,0.02-1.11,0.03-1.66,0.04
			c-0.61,0.01-1.22,0.01-1.83,0.01c-0.48,0-0.96,0-1.44,0c-0.64-0.01-1.27-0.02-1.91-0.03c-0.47-0.01-0.93-0.02-1.4-0.03
			c-0.7-0.02-1.41-0.05-2.11-0.09c-0.38-0.02-0.76-0.03-1.14-0.05c-0.92-0.05-1.84-0.11-2.76-0.18c-0.16-0.01-0.32-0.02-0.47-0.03
			c-1.07-0.09-2.14-0.18-3.2-0.3c-0.32-0.03-0.65-0.07-0.97-0.11c-0.74-0.08-1.48-0.17-2.21-0.26c-0.42-0.05-0.84-0.12-1.25-0.17
			c-0.64-0.09-1.29-0.18-1.93-0.28c-0.44-0.07-0.87-0.14-1.31-0.21c-0.61-0.1-1.21-0.2-1.82-0.31c-0.48-0.09-0.97-0.18-1.45-0.27
			c-0.58-0.11-1.15-0.23-1.72-0.35c-0.48-0.1-0.96-0.2-1.43-0.31c-0.53-0.12-1.07-0.24-1.59-0.37c-0.59-0.14-1.18-0.29-1.76-0.44
			c-0.5-0.13-0.99-0.26-1.48-0.39c-0.58-0.16-1.16-0.32-1.73-0.49c-0.45-0.13-0.9-0.26-1.35-0.4c-0.93-0.28-1.84-0.58-2.75-0.89
			c-0.26-0.09-0.53-0.17-0.79-0.26c-1.15-0.4-2.28-0.82-3.39-1.26c-0.6-0.24-1.19-0.49-1.78-0.74c-0.3-0.13-0.6-0.25-0.9-0.38
			c-0.9-0.39-1.78-0.79-2.64-1.21l-417.55-201.38l0,0c-14.92-7.2-22.49-16.96-22.54-26.79l0.32,55.64
			c0.06,9.83,7.62,19.59,22.54,26.79l0,0l417.55,201.38c0.87,0.42,1.75,0.82,2.64,1.21c0.3,0.13,0.61,0.25,0.91,0.38
			c0.52,0.22,1.04,0.45,1.58,0.66c0.06,0.03,0.13,0.05,0.2,0.07c1.11,0.44,2.24,0.86,3.39,1.26c0.26,0.09,0.52,0.17,0.78,0.26
			c0.91,0.31,1.82,0.61,2.75,0.89c0.17,0.05,0.33,0.11,0.49,0.16c0.28,0.08,0.57,0.16,0.86,0.24c0.57,0.17,1.15,0.33,1.73,0.49
			c0.49,0.13,0.98,0.26,1.48,0.39c0.59,0.15,1.17,0.3,1.76,0.44c0.26,0.06,0.51,0.13,0.77,0.19c0.27,0.06,0.54,0.12,0.81,0.18
			c0.48,0.11,0.96,0.21,1.44,0.31c0.57,0.12,1.14,0.23,1.71,0.35c0.48,0.09,0.97,0.19,1.46,0.28c0.23,0.04,0.46,0.09,0.7,0.13
			c0.37,0.06,0.74,0.12,1.11,0.18c0.44,0.07,0.87,0.15,1.31,0.21c0.64,0.1,1.28,0.19,1.92,0.28c0.42,0.06,0.84,0.12,1.26,0.17
			c0.12,0.02,0.25,0.04,0.37,0.05c0.61,0.08,1.22,0.14,1.84,0.21c0.32,0.04,0.65,0.08,0.97,0.11c1.05,0.11,2.1,0.21,3.16,0.29
			c0.01,0,0.03,0,0.04,0c0.16,0.01,0.32,0.02,0.47,0.03c0.92,0.07,1.84,0.13,2.76,0.18c0.38,0.02,0.76,0.03,1.14,0.05
			c0.56,0.03,1.12,0.06,1.68,0.08c0.14,0.01,0.29,0.01,0.43,0.01c0.47,0.02,0.93,0.02,1.4,0.03c0.64,0.01,1.27,0.03,1.91,0.03
			c0.48,0,0.96,0,1.44,0c0.38,0,0.77,0,1.15,0c0.23,0,0.45-0.01,0.68-0.02c0.56-0.01,1.11-0.02,1.66-0.04
			c0.58-0.02,1.16-0.03,1.74-0.06c0.55-0.02,1.11-0.05,1.66-0.08c0.33-0.02,0.67-0.03,1.01-0.05c0.21-0.01,0.43-0.03,0.64-0.05
			c0.74-0.05,1.48-0.1,2.22-0.16c0.48-0.04,0.96-0.08,1.43-0.12c0.79-0.07,1.58-0.16,2.37-0.24c0.33-0.04,0.67-0.06,1.01-0.1
			c0.07-0.01,0.14-0.02,0.21-0.03c1.41-0.17,2.8-0.36,4.19-0.57c0.34-0.05,0.67-0.11,1.01-0.16c1.11-0.18,2.22-0.37,3.32-0.58
			c0.22-0.04,0.45-0.07,0.68-0.12c0.15-0.03,0.3-0.07,0.45-0.1c0.81-0.16,1.61-0.33,2.41-0.51c0.37-0.08,0.74-0.16,1.11-0.24
			c1.16-0.27,2.31-0.55,3.45-0.85c0.06-0.02,0.12-0.04,0.19-0.05c1.07-0.28,2.13-0.59,3.18-0.9c0.36-0.11,0.72-0.23,1.08-0.34
			c0.74-0.23,1.48-0.47,2.21-0.72c0.41-0.14,0.82-0.29,1.23-0.43c0.67-0.24,1.33-0.48,1.99-0.73c0.41-0.16,0.82-0.32,1.23-0.48
			c0.65-0.26,1.29-0.53,1.92-0.8c0.39-0.17,0.78-0.33,1.16-0.5c0.68-0.3,1.34-0.62,2-0.93c0.32-0.15,0.64-0.3,0.95-0.46
			c0.96-0.48,1.91-0.97,2.83-1.48l723.41-401.89c0.73-0.4,1.43-0.82,2.11-1.23c0.14-0.09,0.29-0.17,0.43-0.26
			c0.12-0.08,0.25-0.15,0.37-0.23c0.55-0.35,1.09-0.7,1.62-1.05c0.07-0.05,0.13-0.09,0.2-0.14c0.57-0.39,1.12-0.78,1.65-1.17
			c0.17-0.12,0.34-0.25,0.5-0.38c0.48-0.37,0.96-0.74,1.41-1.11c0.1-0.08,0.2-0.16,0.3-0.24c0.03-0.03,0.07-0.06,0.11-0.09
			c0.16-0.14,0.31-0.28,0.47-0.42c0.44-0.38,0.88-0.77,1.29-1.16c0.22-0.21,0.43-0.42,0.65-0.64c0.35-0.35,0.7-0.69,1.03-1.05
			c0.08-0.08,0.17-0.17,0.25-0.25c0.16-0.17,0.3-0.34,0.45-0.52c0.24-0.27,0.47-0.53,0.69-0.8s0.43-0.54,0.64-0.81
			s0.42-0.54,0.62-0.81c0.07-0.1,0.15-0.19,0.22-0.29c0.14-0.19,0.25-0.39,0.38-0.58c0.16-0.24,0.32-0.47,0.47-0.71
			c0.19-0.3,0.36-0.6,0.54-0.91c0.13-0.23,0.27-0.47,0.4-0.7c0.04-0.07,0.08-0.14,0.12-0.21c0.13-0.26,0.25-0.52,0.37-0.78
			c0.1-0.21,0.21-0.42,0.3-0.63c0.16-0.37,0.3-0.74,0.44-1.11c0.07-0.17,0.14-0.34,0.2-0.51c0.01-0.02,0.02-0.04,0.03-0.06
			c0.18-0.52,0.34-1.05,0.48-1.57c0.01-0.03,0.01-0.06,0.02-0.09c0.13-0.49,0.24-0.99,0.33-1.48c0-0.02,0.01-0.05,0.01-0.07
			c0.04-0.21,0.06-0.43,0.09-0.64c0.05-0.34,0.1-0.68,0.13-1.03c0.02-0.23,0.02-0.47,0.04-0.7c0.01-0.27,0.04-0.54,0.04-0.81
			c0-0.1,0-0.2,0-0.3L1580.68,1104.62z"/>
		<g>
			<path class="st13" d="M916.67,935.19c35.81-2.5,515.41,230.18,529.02,256.74c13.61,26.56-9.06,61.21-26.04,70.83
				s-74.3,42.09-74.3,42.09c13.04-30.56-5.12-49.36-16.54-54.95s-214.64,58-296.68-8.93s21.48-150.28,21.48-150.28
				s-165.4,91.26-254.56,26.46c-89.17-64.8,72.35-156.32,72.35-156.32L916.67,935.19z"/>
			<path class="st9" d="M1189.45,1187.03c-30.18,0-54.65-16.28-54.65-36.36s24.47-36.36,54.65-36.36c9.89,0,19.16,1.76,27.16,4.81
				c-12.63-8.93-30.55-14.51-50.43-14.51c-38.23,0-69.22,20.62-69.22,46.05s30.99,46.05,69.22,46.05c19.88,0,37.8-5.58,50.43-14.51
				C1208.61,1185.28,1199.34,1187.03,1189.45,1187.03z"/>
			<polygon class="st9" points="911.83,979.83 931.51,1008.95 975.54,1013.62 943.68,1036.28 951.2,1068.29 911.83,1053.18 
				872.45,1068.29 879.97,1036.28 848.11,1013.62 892.14,1008.95 			"/>
		</g>
	</g>
	<polygon class="st8" points="1829.2,1112.16 1712.35,1177.64 1712.35,1241.32 1829.2,1176.27 	"/>
	<polygon class="st7" points="1712.35,1177.64 1829.2,1112.16 1769.88,1083.97 	"/>
	<g>
		<path class="st9" d="M1522.76,662.22c140.62,65.57,256.21,249.26,258.18,410.28l-0.85,67.39l-670.05-312.58l-0.83-68.05
			c-1.97-161.02,110.43-238.39,251.05-172.82L1522.76,662.22z"/>
	</g>
	<g>
		<path class="st7" d="M1588.15,643.18c-24.39-12.59-172.04-81.41-197.49-92.14c-23.24-9.12-47.86-15.06-72.86-15.94
			c-50.33-3.62-87.97,23.35-128.74,47.8c37.06-22.23,82.97-24.12,124.08-13.44c33.28,5.88,176.03,78.89,209.61,92.76
			c66.02,32.05,120.82,82.71,163.23,142.48l48.47-26.93C1694.84,722.36,1644.74,675.19,1588.15,643.18z"/>
		<path class="st8" d="M1734.46,777.77l-48.47,26.93c28.55,40.22,51.49,84.57,68.46,130.15c11.44,31.77,19.78,64.73,23.83,98.28
			c4.47,26.71,0.64,79.48,1.82,106.77l49.13-27.45l-0.83-68.05C1825.98,952.06,1790.82,856.57,1734.46,777.77z"/>
	</g>
	<g>
		<polygon class="st10" points="784.44,853.35 799.59,875.37 851.15,831.45 825.2,905.14 840.15,928.17 923.23,866.89 
			909.82,850.98 858.41,885.71 871.78,813.05 863.4,798.67 		"/>
		<polygon class="st10" points="869.67,710.29 867.14,729.1 915.23,730.59 866.41,756.99 863.3,776.24 936.26,783.62 936.78,768.85 
			893.16,762.6 934.86,730.75 937.31,719.18 		"/>
		<polygon class="st10" points="798.9,666.43 800.73,678.86 831.57,671.02 805.36,696.72 806.89,709.52 854.62,700.9 852.26,691.41 
			823.38,695.4 844.08,667.54 843.52,659.73 		"/>
	</g>
</g>
</svg>
